<svg version="1.1" id="Layer_1" xmlns="http://www.w3.org/2000/svg" xmlns:xlink="http://www.w3.org/1999/xlink" x="0px" y="0px"
	 width="100%" viewBox="0 0 2000 1500" enable-background="new 0 0 2000 1500" xml:space="preserve">
<path fill="#000000" opacity="1.000000" stroke="none" 
	d="
M1226.000000,1501.000000 
	C817.333435,1501.000000 409.166901,1501.000000 1.000274,1501.000000 
	C1.000183,1001.000244 1.000183,501.000549 1.000091,1.000609 
	C667.666199,1.000406 1334.332397,1.000406 2000.998901,1.000203 
	C2000.999268,500.999390 2000.999268,1000.998779 2000.999634,1500.999023 
	C1742.833374,1501.000000 1484.666626,1501.000000 1226.000000,1501.000000 
M651.500000,505.024475 
	C645.500732,505.024780 639.501404,505.023987 633.502136,505.025574 
	C623.760925,505.028107 623.761841,505.028748 624.001953,514.383606 
	C624.019043,515.049805 624.006592,515.716736 624.006592,516.383362 
	C624.006653,663.536377 624.006714,810.689453 624.005676,957.842468 
	C624.005615,959.175598 624.172119,960.539612 623.951538,961.836609 
	C622.927429,967.859070 622.982544,967.980774 628.708130,967.981384 
	C700.867920,967.988647 773.027649,967.994141 845.187439,967.999939 
	C846.187317,968.000000 847.194641,968.077881 848.186035,967.985779 
	C862.354797,966.669617 876.529785,965.413391 890.685242,963.965576 
	C899.264648,963.088074 908.023010,962.747620 916.328979,960.675232 
	C931.189148,956.967590 945.950378,953.111938 959.993774,946.278625 
	C978.211853,937.414001 992.666199,924.923767 1004.721375,908.908081 
	C1014.436829,896.000916 1020.916077,881.533020 1025.592773,866.409424 
	C1029.742554,852.990051 1032.617188,839.072693 1034.807007,825.178467 
	C1037.267334,809.568054 1038.660767,793.762939 1039.887939,777.993530 
	C1040.786133,766.452759 1040.897949,754.833374 1040.927490,743.247864 
	C1040.951538,733.830444 1040.050781,724.411255 1040.057495,714.993164 
	C1040.072388,694.074524 1039.558228,673.216614 1036.005005,652.530396 
	C1034.469360,643.590332 1033.918945,634.427795 1031.728638,625.664368 
	C1026.955200,606.567017 1021.323242,587.603088 1010.304932,571.020142 
	C1004.462646,562.227295 997.957703,553.569214 990.338867,546.339478 
	C980.793701,537.281921 969.466553,530.420044 957.299988,524.882874 
	C943.911133,518.789429 929.884766,515.126953 915.655884,512.108948 
	C908.049133,510.495483 900.228210,509.758942 892.465637,509.041107 
	C876.317932,507.547913 860.151733,505.293640 843.980652,505.182831 
	C780.156372,504.745422 716.327332,505.016327 651.500000,505.024475 
M1197.499268,1049.000000 
	C1202.664185,1048.999878 1207.844604,1049.219849 1212.983643,1048.854858 
	C1214.379517,1048.755859 1216.416382,1047.132446 1216.837769,1045.793091 
	C1218.216797,1041.408936 1218.920166,1036.817383 1220.005859,1032.335083 
	C1221.949829,1024.310181 1223.932983,1016.294189 1225.987915,1008.297119 
	C1231.375244,987.330872 1236.779663,966.368896 1242.233643,945.420044 
	C1247.886841,923.706543 1253.581177,902.003662 1259.307007,880.309204 
	C1262.822510,866.989563 1266.467529,853.704224 1269.989014,840.386230 
	C1276.011353,817.610229 1281.995239,794.824036 1287.970581,772.035645 
	C1291.994873,756.687439 1296.019897,741.339233 1299.965454,725.970703 
	C1304.270142,709.203674 1308.404053,692.392578 1312.761230,675.639282 
	C1316.389282,661.689453 1320.339478,647.823303 1323.951538,633.869507 
	C1327.889038,618.658752 1331.587891,603.386292 1335.415894,588.147034 
	C1340.260132,568.861511 1345.042480,549.559692 1350.019897,530.308472 
	C1353.189209,518.050171 1356.724609,505.887054 1359.985229,493.651794 
	C1363.614502,480.033203 1367.103516,466.377258 1370.688354,452.746704 
	C1371.482300,449.727692 1370.923584,447.970947 1367.307495,447.975281 
	C1332.481323,448.016724 1297.655151,447.970032 1262.829590,448.119629 
	C1261.560547,448.125061 1259.560669,449.656982 1259.167847,450.883270 
	C1257.802246,455.147186 1257.090088,459.614685 1255.958862,463.960419 
	C1251.396973,481.487457 1246.794189,499.003998 1242.161255,516.512451 
	C1238.814819,529.159302 1235.326172,541.768860 1232.035522,554.429993 
	C1229.742798,563.251465 1227.742065,572.148499 1225.497314,580.982910 
	C1221.708618,595.893433 1217.826660,610.780212 1213.989502,625.678406 
	C1211.109985,636.858521 1208.274902,648.050171 1205.355469,659.219910 
	C1202.275146,671.004822 1199.066772,682.756409 1196.008545,694.546936 
	C1192.632812,707.561523 1189.454468,720.627747 1186.018555,733.626099 
	C1183.494873,743.173340 1180.572632,752.615356 1178.058716,762.164917 
	C1176.178223,769.309021 1174.787598,776.580933 1172.965942,783.741760 
	C1167.707886,804.410950 1162.345093,825.053467 1157.017456,845.704895 
	C1153.573608,859.054260 1150.183228,872.417786 1146.655396,885.744873 
	C1140.831421,907.745850 1134.831055,929.700195 1129.070435,951.717468 
	C1125.539185,965.213928 1122.324585,978.793152 1118.952148,992.331299 
	C1117.477661,998.250305 1116.034424,1004.178467 1114.454468,1010.069580 
	C1111.001709,1022.943176 1107.470337,1035.795654 1103.877808,1049.000000 
	C1135.198730,1049.000000 1165.849121,1049.000000 1197.499268,1049.000000 
M509.225555,566.972534 
	C508.586548,567.074463 507.911011,567.075745 507.313812,567.292786 
	C485.576904,575.190491 463.857666,583.136963 442.112396,591.011536 
	C430.880768,595.078918 419.591156,598.985901 408.351929,603.032471 
	C391.111053,609.239685 373.877441,615.467590 356.666260,621.756470 
	C341.079803,627.451599 325.556000,633.318909 309.951355,638.963135 
	C296.725220,643.747070 283.527222,648.657349 270.100464,652.812805 
	C265.102875,654.359558 265.075409,657.503296 265.098114,661.180542 
	C265.111938,663.423462 265.954468,665.662292 265.960358,667.904175 
	C266.026367,693.070618 266.018921,718.237305 265.996613,743.403931 
	C265.980072,762.048889 265.870392,780.693970 265.946655,799.338440 
	C265.952850,800.858887 266.648376,803.059448 267.763489,803.751282 
	C270.143311,805.227478 272.996918,805.953613 275.677673,806.928589 
	C285.847839,810.627136 296.005798,814.360840 306.207214,817.971558 
	C319.147339,822.551697 332.174286,826.890137 345.075531,831.575867 
	C364.410919,838.598389 383.658356,845.862610 402.965118,852.964661 
	C414.024078,857.032715 425.124878,860.987183 436.209564,864.985352 
	C453.765594,871.317688 471.322906,877.646423 488.881470,883.971802 
	C504.632202,889.645874 520.368530,895.360962 536.151917,900.942627 
	C539.194336,902.018616 542.425537,902.560913 545.986572,903.454041 
	C545.986572,895.985535 545.985718,889.501892 545.986694,883.018188 
	C545.990845,856.018311 546.051331,829.018005 545.887024,802.019165 
	C545.874817,800.010559 544.761658,796.834656 543.295227,796.199890 
	C533.962830,792.160095 524.430481,788.565002 514.881653,785.046753 
	C501.840668,780.241943 488.656586,775.820068 475.662872,770.893738 
	C462.700043,765.979187 449.945526,760.517029 437.005005,755.541199 
	C428.958618,752.447266 420.679016,749.963257 412.608215,746.928772 
	C403.527039,743.514282 394.590240,739.717773 385.538666,736.222046 
	C379.056610,733.718567 372.488953,731.436890 365.082581,728.736511 
	C374.791779,725.019043 383.396240,721.621826 392.075134,718.426758 
	C404.045258,714.020020 416.114197,709.880127 428.063110,705.417908 
	C443.281342,699.734741 458.422211,693.844543 473.595734,688.041748 
	C486.687805,683.035034 499.744141,677.932312 512.882141,673.049194 
	C522.294678,669.550720 531.810425,666.328918 541.291931,663.017578 
	C544.195923,662.003357 546.261536,660.770386 546.079346,656.968872 
	C545.752686,650.155579 545.999451,643.315063 545.998779,636.485901 
	C545.996338,610.152832 545.971680,583.819702 546.009338,557.486694 
	C546.014282,554.006287 544.650391,553.879944 541.767578,554.939392 
	C533.538818,557.963562 525.191040,560.662109 516.922302,563.580017 
	C514.536743,564.421875 512.260193,565.572571 509.225555,566.972534 
M1524.622192,770.046753 
	C1514.864014,774.001343 1505.174683,778.137756 1495.330322,781.864502 
	C1483.071899,786.505249 1470.717163,790.899841 1458.332397,795.193909 
	C1455.110962,796.310852 1453.875854,797.775940 1453.895752,801.418213 
	C1454.074219,834.080078 1453.997925,866.743347 1454.008423,899.406189 
	C1454.008789,900.545593 1454.134888,901.685059 1454.262939,903.846436 
	C1459.161377,902.112244 1463.628662,900.582031 1468.059204,898.952087 
	C1478.819824,894.993469 1489.537964,890.917603 1500.319946,887.018555 
	C1517.112915,880.945923 1533.939819,874.966736 1550.761719,868.974304 
	C1564.588257,864.048767 1578.448364,859.217346 1592.257568,854.243835 
	C1611.808105,847.202454 1631.318604,840.050232 1650.859741,832.982544 
	C1660.471191,829.506165 1670.116333,826.123169 1679.740112,822.680542 
	C1694.340576,817.457520 1708.838013,811.921082 1723.571289,807.105225 
	C1731.768677,804.425903 1733.000000,803.614685 1733.000000,794.907043 
	C1733.000000,750.078979 1733.000122,705.250916 1733.000000,660.422852 
	C1733.000000,659.089661 1733.334229,657.636108 1732.909424,656.455750 
	C1732.447266,655.171570 1731.511230,653.516357 1730.383423,653.098572 
	C1720.819580,649.556213 1711.169189,646.246582 1701.535889,642.892761 
	C1691.896851,639.536743 1682.199585,636.341309 1672.614380,632.838928 
	C1659.129395,627.911804 1645.762695,622.661133 1632.274170,617.743835 
	C1618.471436,612.711792 1604.551758,608.000671 1590.740723,602.990356 
	C1577.855347,598.315857 1565.044800,593.435059 1552.202881,588.640808 
	C1541.914673,584.799988 1531.679443,580.810608 1521.329712,577.143555 
	C1507.652832,572.297668 1493.864624,567.766968 1480.168213,562.974976 
	C1471.617676,559.983398 1463.148193,556.759949 1454.000000,553.404907 
	C1454.000000,566.607544 1454.000000,579.055054 1454.000000,591.502502 
	C1454.000000,613.333252 1453.919678,635.164856 1454.134521,656.993469 
	C1454.154297,658.996826 1455.594116,662.181396 1457.161865,662.790222 
	C1473.394653,669.093933 1489.781738,675.002258 1506.141724,680.977051 
	C1519.358765,685.803955 1532.641479,690.453979 1545.816284,695.392761 
	C1565.280029,702.689087 1584.656860,710.216980 1604.104492,717.556458 
	C1613.940063,721.268311 1623.850098,724.782898 1634.355347,728.616150 
	C1597.518066,742.621643 1561.475098,756.325073 1524.622192,770.046753 
z"/>
<path fill="#FFFFFF" opacity="1.000000" stroke="none" 
	d="
M652.000000,505.024475 
	C716.327332,505.016327 780.156372,504.745422 843.980652,505.182831 
	C860.151733,505.293640 876.317932,507.547913 892.465637,509.041107 
	C900.228210,509.758942 908.049133,510.495483 915.655884,512.108948 
	C929.884766,515.126953 943.911133,518.789429 957.299988,524.882874 
	C969.466553,530.420044 980.793701,537.281921 990.338867,546.339478 
	C997.957703,553.569214 1004.462646,562.227295 1010.304932,571.020142 
	C1021.323242,587.603088 1026.955200,606.567017 1031.728638,625.664368 
	C1033.918945,634.427795 1034.469360,643.590332 1036.005005,652.530396 
	C1039.558228,673.216614 1040.072388,694.074524 1040.057495,714.993164 
	C1040.050781,724.411255 1040.951538,733.830444 1040.927490,743.247864 
	C1040.897949,754.833374 1040.786133,766.452759 1039.887939,777.993530 
	C1038.660767,793.762939 1037.267334,809.568054 1034.807007,825.178467 
	C1032.617188,839.072693 1029.742554,852.990051 1025.592773,866.409424 
	C1020.916077,881.533020 1014.436829,896.000916 1004.721375,908.908081 
	C992.666199,924.923767 978.211853,937.414001 959.993774,946.278625 
	C945.950378,953.111938 931.189148,956.967590 916.328979,960.675232 
	C908.023010,962.747620 899.264648,963.088074 890.685242,963.965576 
	C876.529785,965.413391 862.354797,966.669617 848.186035,967.985779 
	C847.194641,968.077881 846.187317,968.000000 845.187439,967.999939 
	C773.027649,967.994141 700.867920,967.988647 628.708130,967.981384 
	C622.982544,967.980774 622.927429,967.859070 623.951538,961.836609 
	C624.172119,960.539612 624.005615,959.175598 624.005676,957.842468 
	C624.006714,810.689453 624.006653,663.536377 624.006592,516.383362 
	C624.006592,515.716736 624.019043,515.049805 624.001953,514.383606 
	C623.761841,505.028748 623.760925,505.028107 633.502136,505.025574 
	C639.501404,505.023987 645.500732,505.024780 652.000000,505.024475 
M812.499878,866.999939 
	C830.895569,867.546082 849.023987,865.843323 866.858704,861.057129 
	C886.583191,855.763855 900.807068,844.213257 907.938416,824.891479 
	C911.140503,816.215698 914.013367,807.293396 915.758972,798.236938 
	C917.880737,787.228760 919.328552,775.992065 919.846252,764.797729 
	C920.523376,750.159729 920.117554,735.465088 919.956482,720.797241 
	C919.864014,712.377075 919.353577,703.960815 918.996765,695.544312 
	C918.314453,679.447449 915.456055,663.720947 909.859497,648.630554 
	C904.696899,634.710449 896.416443,622.936951 882.287231,616.954712 
	C874.840576,613.801941 866.646057,612.464661 858.915833,609.922363 
	C844.008911,605.019653 828.485718,605.751770 813.216797,605.190063 
	C791.415466,604.388123 769.562744,604.984558 747.731934,604.983765 
	C745.589783,604.983704 743.447693,604.983765 741.800598,604.983765 
	C741.800598,692.743835 741.800598,780.148315 741.800598,866.999939 
	C765.358582,866.999939 788.429321,866.999939 812.499878,866.999939 
z"/>
<path fill="#FFFFFF" opacity="1.000000" stroke="none" 
	d="
M1196.999390,1049.000000 
	C1165.849121,1049.000000 1135.198730,1049.000000 1103.877808,1049.000000 
	C1107.470337,1035.795654 1111.001709,1022.943176 1114.454468,1010.069580 
	C1116.034424,1004.178467 1117.477661,998.250305 1118.952148,992.331299 
	C1122.324585,978.793152 1125.539185,965.213928 1129.070435,951.717468 
	C1134.831055,929.700195 1140.831421,907.745850 1146.655396,885.744873 
	C1150.183228,872.417786 1153.573608,859.054260 1157.017456,845.704895 
	C1162.345093,825.053467 1167.707886,804.410950 1172.965942,783.741760 
	C1174.787598,776.580933 1176.178223,769.309021 1178.058716,762.164917 
	C1180.572632,752.615356 1183.494873,743.173340 1186.018555,733.626099 
	C1189.454468,720.627747 1192.632812,707.561523 1196.008545,694.546936 
	C1199.066772,682.756409 1202.275146,671.004822 1205.355469,659.219910 
	C1208.274902,648.050171 1211.109985,636.858521 1213.989502,625.678406 
	C1217.826660,610.780212 1221.708618,595.893433 1225.497314,580.982910 
	C1227.742065,572.148499 1229.742798,563.251465 1232.035522,554.429993 
	C1235.326172,541.768860 1238.814819,529.159302 1242.161255,516.512451 
	C1246.794189,499.003998 1251.396973,481.487457 1255.958862,463.960419 
	C1257.090088,459.614685 1257.802246,455.147186 1259.167847,450.883270 
	C1259.560669,449.656982 1261.560547,448.125061 1262.829590,448.119629 
	C1297.655151,447.970032 1332.481323,448.016724 1367.307495,447.975281 
	C1370.923584,447.970947 1371.482300,449.727692 1370.688354,452.746704 
	C1367.103516,466.377258 1363.614502,480.033203 1359.985229,493.651794 
	C1356.724609,505.887054 1353.189209,518.050171 1350.019897,530.308472 
	C1345.042480,549.559692 1340.260132,568.861511 1335.415894,588.147034 
	C1331.587891,603.386292 1327.889038,618.658752 1323.951538,633.869507 
	C1320.339478,647.823303 1316.389282,661.689453 1312.761230,675.639282 
	C1308.404053,692.392578 1304.270142,709.203674 1299.965454,725.970703 
	C1296.019897,741.339233 1291.994873,756.687439 1287.970581,772.035645 
	C1281.995239,794.824036 1276.011353,817.610229 1269.989014,840.386230 
	C1266.467529,853.704224 1262.822510,866.989563 1259.307007,880.309204 
	C1253.581177,902.003662 1247.886841,923.706543 1242.233643,945.420044 
	C1236.779663,966.368896 1231.375244,987.330872 1225.987915,1008.297119 
	C1223.932983,1016.294189 1221.949829,1024.310181 1220.005859,1032.335083 
	C1218.920166,1036.817383 1218.216797,1041.408936 1216.837769,1045.793091 
	C1216.416382,1047.132446 1214.379517,1048.755859 1212.983643,1048.854858 
	C1207.844604,1049.219849 1202.664185,1048.999878 1196.999390,1049.000000 
z"/>
<path fill="#FFFFFF" opacity="1.000000" stroke="none" 
	d="
M509.579590,566.777100 
	C512.260193,565.572571 514.536743,564.421875 516.922302,563.580017 
	C525.191040,560.662109 533.538818,557.963562 541.767578,554.939392 
	C544.650391,553.879944 546.014282,554.006287 546.009338,557.486694 
	C545.971680,583.819702 545.996338,610.152832 545.998779,636.485901 
	C545.999451,643.315063 545.752686,650.155579 546.079346,656.968872 
	C546.261536,660.770386 544.195923,662.003357 541.291931,663.017578 
	C531.810425,666.328918 522.294678,669.550720 512.882141,673.049194 
	C499.744141,677.932312 486.687805,683.035034 473.595734,688.041748 
	C458.422211,693.844543 443.281342,699.734741 428.063110,705.417908 
	C416.114197,709.880127 404.045258,714.020020 392.075134,718.426758 
	C383.396240,721.621826 374.791779,725.019043 365.082581,728.736511 
	C372.488953,731.436890 379.056610,733.718567 385.538666,736.222046 
	C394.590240,739.717773 403.527039,743.514282 412.608215,746.928772 
	C420.679016,749.963257 428.958618,752.447266 437.005005,755.541199 
	C449.945526,760.517029 462.700043,765.979187 475.662872,770.893738 
	C488.656586,775.820068 501.840668,780.241943 514.881653,785.046753 
	C524.430481,788.565002 533.962830,792.160095 543.295227,796.199890 
	C544.761658,796.834656 545.874817,800.010559 545.887024,802.019165 
	C546.051331,829.018005 545.990845,856.018311 545.986694,883.018188 
	C545.985718,889.501892 545.986572,895.985535 545.986572,903.454041 
	C542.425537,902.560913 539.194336,902.018616 536.151917,900.942627 
	C520.368530,895.360962 504.632202,889.645874 488.881470,883.971802 
	C471.322906,877.646423 453.765594,871.317688 436.209564,864.985352 
	C425.124878,860.987183 414.024078,857.032715 402.965118,852.964661 
	C383.658356,845.862610 364.410919,838.598389 345.075531,831.575867 
	C332.174286,826.890137 319.147339,822.551697 306.207214,817.971558 
	C296.005798,814.360840 285.847839,810.627136 275.677673,806.928589 
	C272.996918,805.953613 270.143311,805.227478 267.763489,803.751282 
	C266.648376,803.059448 265.952850,800.858887 265.946655,799.338440 
	C265.870392,780.693970 265.980072,762.048889 265.996613,743.403931 
	C266.018921,718.237305 266.026367,693.070618 265.960358,667.904175 
	C265.954468,665.662292 265.111938,663.423462 265.098114,661.180542 
	C265.075409,657.503296 265.102875,654.359558 270.100464,652.812805 
	C283.527222,648.657349 296.725220,643.747070 309.951355,638.963135 
	C325.556000,633.318909 341.079803,627.451599 356.666260,621.756470 
	C373.877441,615.467590 391.111053,609.239685 408.351929,603.032471 
	C419.591156,598.985901 430.880768,595.078918 442.112396,591.011536 
	C463.857666,583.136963 485.576904,575.190491 507.313812,567.292786 
	C507.911011,567.075745 508.586548,567.074463 509.579590,566.777100 
z"/>
<path fill="#FFFFFF" opacity="1.000000" stroke="none" 
	d="
M1525.027222,770.037659 
	C1561.475098,756.325073 1597.518066,742.621643 1634.355347,728.616150 
	C1623.850098,724.782898 1613.940063,721.268311 1604.104492,717.556458 
	C1584.656860,710.216980 1565.280029,702.689087 1545.816284,695.392761 
	C1532.641479,690.453979 1519.358765,685.803955 1506.141724,680.977051 
	C1489.781738,675.002258 1473.394653,669.093933 1457.161865,662.790222 
	C1455.594116,662.181396 1454.154297,658.996826 1454.134521,656.993469 
	C1453.919678,635.164856 1454.000000,613.333252 1454.000000,591.502502 
	C1454.000000,579.055054 1454.000000,566.607544 1454.000000,553.404907 
	C1463.148193,556.759949 1471.617676,559.983398 1480.168213,562.974976 
	C1493.864624,567.766968 1507.652832,572.297668 1521.329712,577.143555 
	C1531.679443,580.810608 1541.914673,584.799988 1552.202881,588.640808 
	C1565.044800,593.435059 1577.855347,598.315857 1590.740723,602.990356 
	C1604.551758,608.000671 1618.471436,612.711792 1632.274170,617.743835 
	C1645.762695,622.661133 1659.129395,627.911804 1672.614380,632.838928 
	C1682.199585,636.341309 1691.896851,639.536743 1701.535889,642.892761 
	C1711.169189,646.246582 1720.819580,649.556213 1730.383423,653.098572 
	C1731.511230,653.516357 1732.447266,655.171570 1732.909424,656.455750 
	C1733.334229,657.636108 1733.000000,659.089661 1733.000000,660.422852 
	C1733.000122,705.250916 1733.000000,750.078979 1733.000000,794.907043 
	C1733.000000,803.614685 1731.768677,804.425903 1723.571289,807.105225 
	C1708.838013,811.921082 1694.340576,817.457520 1679.740112,822.680542 
	C1670.116333,826.123169 1660.471191,829.506165 1650.859741,832.982544 
	C1631.318604,840.050232 1611.808105,847.202454 1592.257568,854.243835 
	C1578.448364,859.217346 1564.588257,864.048767 1550.761719,868.974304 
	C1533.939819,874.966736 1517.112915,880.945923 1500.319946,887.018555 
	C1489.537964,890.917603 1478.819824,894.993469 1468.059204,898.952087 
	C1463.628662,900.582031 1459.161377,902.112244 1454.262939,903.846436 
	C1454.134888,901.685059 1454.008789,900.545593 1454.008423,899.406189 
	C1453.997925,866.743347 1454.074219,834.080078 1453.895752,801.418213 
	C1453.875854,797.775940 1455.110962,796.310852 1458.332397,795.193909 
	C1470.717163,790.899841 1483.071899,786.505249 1495.330322,781.864502 
	C1505.174683,778.137756 1514.864014,774.001343 1525.027222,770.037659 
z"/>
<path fill="#000000" opacity="1.000000" stroke="none" 
	d="
M811.999939,866.999939 
	C788.429321,866.999939 765.358582,866.999939 741.800598,866.999939 
	C741.800598,780.148315 741.800598,692.743835 741.800598,604.983765 
	C743.447693,604.983765 745.589783,604.983704 747.731934,604.983765 
	C769.562744,604.984558 791.415466,604.388123 813.216797,605.190063 
	C828.485718,605.751770 844.008911,605.019653 858.915833,609.922363 
	C866.646057,612.464661 874.840576,613.801941 882.287231,616.954712 
	C896.416443,622.936951 904.696899,634.710449 909.859497,648.630554 
	C915.456055,663.720947 918.314453,679.447449 918.996765,695.544312 
	C919.353577,703.960815 919.864014,712.377075 919.956482,720.797241 
	C920.117554,735.465088 920.523376,750.159729 919.846252,764.797729 
	C919.328552,775.992065 917.880737,787.228760 915.758972,798.236938 
	C914.013367,807.293396 911.140503,816.215698 907.938416,824.891479 
	C900.807068,844.213257 886.583191,855.763855 866.858704,861.057129 
	C849.023987,865.843323 830.895569,867.546082 811.999939,866.999939 
z"/>
</svg>